<svg width="50" height="50" viewBox="0 0 50 50" fill="none" xmlns="http://www.w3.org/2000/svg">
<style>
    .albero {
      fill: #1C3E59;
    }
    .stroke {
      stroke: #1C3E59;
    }
    @media (prefers-color-scheme: dark) {
      .albero {
        fill: #ffffff;
      }
      .stroke {
        stroke: #ffffff;
      }
    }
  </style>
<path d="M11.3168 32.5914C11.3168 32.5914 11.2325 33.823 11.0399 34.0156C10.9582 34.0973 11.5222 34.0089 11.7141 34.0638C12.0512 34.1601 12.3779 34.1395 12.6412 34.1395C12.9245 34.1395 12.9073 34.2012 13.207 34.2083C13.5068 34.2153 14.1221 34.1395 14.6036 34.0156C15.0852 33.8917 14.7 33.988 15.4705 33.6785C16.2411 33.369 16.1447 33.1969 16.3374 33.0524C16.53 32.908 16.6263 32.7635 16.6263 32.7635C16.6263 32.7635 16.9494 32.232 17.1079 31.8966C17.2601 31.5745 17.2524 31.5473 17.3487 31.1139C17.4078 30.8479 17.3373 30.6909 17.445 30.4037C17.5895 30.0184 16.6597 30.5606 16.1929 30.6445C15.7715 30.7203 15.6186 30.8739 15.2779 31.0779C15.0287 31.2272 14.9004 31.2648 14.6518 31.4151C14.1515 31.7175 13.4901 32.523 13.7368 31.993C13.8708 31.7049 13.9294 31.8003 14.1702 31.5114C14.4187 31.2132 14.3803 31.3542 14.6852 31.1139C14.988 30.8752 15.7595 30.4037 15.7595 30.4037C16.2293 30.1081 17.4419 29.7606 16.9153 29.585C16.7708 29.5369 16.1998 29.3924 15.9039 29.3924C15.5834 29.3924 15.5019 29.4048 15.1816 29.3924C14.8057 29.3778 14.8152 29.4209 14.4471 29.4985C14.1335 29.5646 13.9284 29.6851 13.6284 29.7982C13.2667 29.9346 13.1994 30.0647 12.906 30.3279C12.6231 30.5818 12.515 30.6071 12.28 30.9059C12.0512 31.1967 11.9338 31.307 11.7502 31.6283C11.5313 32.0115 11.3168 32.5914 11.3168 32.5914Z" fill="#6AAB29"/>
<path d="M39.8871 32.9078C39.8871 32.9078 39.6945 33.4376 40.0316 33.871C40.1025 33.9622 39.8542 33.7978 39.5981 33.871C39.261 33.9673 38.8983 34.1819 38.635 34.1819C38.3517 34.1819 38.2123 34.1749 37.9126 34.1819C37.6129 34.189 37.0304 34.1132 36.5488 33.9893C36.0672 33.8654 36.4525 33.9617 35.682 33.6522C34.9114 33.3427 35.0077 33.1706 34.8151 33.0261C34.6225 32.8816 34.5262 32.7372 34.5262 32.7372C34.5262 32.7372 34.203 32.2057 34.0446 31.8703C33.8924 31.5482 33.9001 31.521 33.8038 31.0875C33.7447 30.8216 33.8152 30.6646 33.7075 30.3774C33.563 29.9921 34.4928 30.5343 34.9596 30.6182C35.381 30.6939 35.5339 30.8475 35.8746 31.0516C36.1238 31.2008 36.2521 31.2385 36.5007 31.3887C37.001 31.6911 37.7428 32.4512 37.4157 31.9666L37.4157 31.9666C37.2384 31.7038 37.2384 31.7038 36.9013 31.4631C36.5854 31.2374 36.7245 31.3662 36.4197 31.1259C36.1168 30.8872 35.8899 30.6925 35.2967 30.4255C34.7035 30.1586 33.7106 29.7342 34.2372 29.5587C34.3817 29.5105 34.9527 29.366 35.2486 29.366C35.5691 29.366 35.6506 29.3785 35.9709 29.366C36.3468 29.3514 36.3373 29.3946 36.7054 29.4722C37.019 29.5383 37.2241 29.6587 37.5241 29.7719C37.8857 29.9082 37.9531 30.0383 38.2464 30.3016C38.5294 30.5555 38.6375 30.5807 38.8725 30.8795C39.1013 31.1703 39.2187 31.2806 39.4023 31.6019C39.6212 31.9852 39.8871 32.9078 39.8871 32.9078Z" fill="#6AAB29"/>
<path d="M16.0198 7.05904C16.0198 7.05904 15.1522 6.80592 14.9889 6.61329C14.9256 6.53865 14.7503 7.02295 14.7 7.1912C14.6115 7.48669 14.5132 7.63178 14.5073 7.86544C14.501 8.11684 14.453 8.41696 14.4403 8.68266C14.4277 8.94836 14.4718 9.33345 14.4592 9.59915C14.4465 9.86485 14.6461 10.1726 14.7963 10.5142C14.8643 10.6689 14.9206 10.71 15.0242 10.8995L15.0269 10.9044C15.1309 11.0948 15.3136 11.4289 15.615 11.67C15.8417 11.8514 16.062 11.8927 16.3401 12.0461C16.6072 12.1933 16.7779 12.2259 17.0618 12.3307C17.2969 12.4174 17.238 12.341 17.4767 12.4475C17.797 12.5903 17.6934 11.9656 17.5413 11.5736C17.414 11.2455 17.3844 10.9687 17.2207 10.6586C17.1009 10.4319 17.0458 10.3738 16.9153 10.1289C16.6725 9.67345 16.0858 8.69023 16.4123 9.06941C16.5782 9.26204 16.5751 9.38253 16.7494 9.59916C16.9624 9.86382 16.9181 9.89336 17.113 10.173C17.3067 10.4508 17.734 11.1402 17.734 11.1402C17.9717 11.5684 18.1527 12.6123 18.3119 12.1516C18.3556 12.0252 18.546 11.6918 18.5527 11.4292C18.5599 11.1447 18.6314 11.1832 18.649 10.8994C18.6697 10.5664 18.754 10.4102 18.6972 10.0807C18.6498 9.80658 18.5496 9.49946 18.4627 9.23344L18.4563 9.21386C18.3499 8.88773 18.2156 8.68413 18.0229 8.49149C17.7789 8.24748 17.6907 8.08533 17.445 7.86544C17.2059 7.65141 17.1328 7.60705 16.8671 7.43201C16.5502 7.22318 16.0198 7.05904 16.0198 7.05904Z" fill="#6AAB29"/>
<path d="M35.0799 7.05554C35.0799 7.05554 36.0751 6.54717 36.3222 6.7061C36.4046 6.75903 36.3494 7.01944 36.3997 7.18769C36.4882 7.48319 36.5865 7.62828 36.5924 7.86193C36.5987 8.11333 36.6467 8.41345 36.6594 8.67915C36.672 8.94486 36.6279 9.32994 36.6405 9.59564C36.6531 9.86134 36.4536 10.1691 36.3034 10.5107C36.2354 10.6654 36.1791 10.7065 36.0755 10.8959L36.0728 10.9009C35.9687 11.0913 35.7861 11.4254 35.4847 11.6665C35.258 11.8478 35.0377 11.8892 34.7596 12.0426C34.4925 12.1898 34.3218 12.2224 34.0378 12.3272C33.8028 12.4139 33.8617 12.3375 33.623 12.444C33.3027 12.5868 33.4263 11.9173 33.5783 11.5253C33.7056 11.1972 33.7352 10.9204 33.899 10.6103C34.0187 10.3836 34.0539 10.3703 34.1844 10.1254C34.4272 9.66994 35.0138 8.68673 34.6874 9.0659C34.5215 9.25854 34.5246 9.37902 34.3503 9.59565C34.1373 9.86031 34.2328 9.81395 34.0378 10.0936C33.8442 10.3713 33.4169 11.0608 33.4169 11.0608C33.1792 11.489 32.947 12.6088 32.7878 12.1481C32.7441 12.0217 32.567 11.8143 32.4707 11.4805C32.3918 11.2071 32.392 11.2312 32.3743 10.9474C32.3537 10.6145 32.3175 10.455 32.3743 10.1254C32.4228 9.84454 32.575 9.53233 32.6633 9.26187C32.7697 8.93575 32.9323 8.68063 33.1249 8.48799C33.3689 8.24398 33.409 8.08182 33.6547 7.86193C33.8937 7.6479 33.9669 7.60354 34.2326 7.4285C34.5495 7.21967 35.0799 7.05554 35.0799 7.05554Z" fill="#6AAB29"/>
<path d="M8.99426 9.32766C8.99426 9.32766 7.71698 9.30994 7.62067 9.26178C7.52435 9.21362 7.54594 9.78427 7.56042 9.98418C7.58587 10.3353 7.63013 10.6455 7.71699 10.8992C7.81044 11.1722 7.82476 11.6504 7.95778 11.7899C8.0908 11.9295 8.16955 12.5327 8.34989 12.7368C8.53023 12.9409 8.773 13.2845 9.06544 13.5961C9.19792 13.7373 9.26733 13.7679 9.45071 13.9332C9.63409 14.0985 9.99414 14.2941 10.4078 14.4425C10.7162 14.5531 10.9781 14.6424 11.3289 14.7038C11.6659 14.7626 11.7137 14.6969 12.0513 14.7038C12.3308 14.7095 12.2462 14.5986 12.5329 14.6556C12.9209 14.7328 12.6433 14.0613 12.3288 13.6961C12.0655 13.3903 11.9245 13.1034 11.6304 12.8307C11.4154 12.6312 11.3829 12.5133 11.1494 12.2984C10.7152 11.8986 9.71237 11.059 10.2035 11.3454C10.453 11.4909 10.4978 11.6218 10.7657 11.7899C11.093 11.9954 11.0586 12.0437 11.3731 12.272C11.6855 12.4988 12.3288 13.1627 12.3288 13.1627C12.7469 13.5349 13.3909 14.633 13.3734 14.0777C13.3686 13.9253 13.471 13.3724 13.3734 13.0873C13.2677 12.7784 13.2882 12.7592 13.1936 12.4472C13.0826 12.081 13.0582 11.8994 12.8677 11.5658C12.7054 11.2815 12.4905 11.0325 12.2909 10.7743C12.0501 10.4629 11.8792 10.2759 11.6018 10.1404C11.2504 9.96873 11.144 9.80912 10.8005 9.66404C10.4662 9.52283 10.3723 9.50237 10.0257 9.41306C9.61229 9.3065 8.99426 9.32766 8.99426 9.32766Z" fill="#6AAB29"/>
<path d="M42.0961 9.21383C42.0961 9.21383 43.2099 9.29922 43.547 9.21383C43.6527 9.18707 43.5615 9.97711 43.547 10.177C43.5216 10.5281 43.4591 10.5951 43.3995 10.8566C43.2581 11.4773 43.2544 11.4994 43.1618 11.7901C43.0692 12.0809 43.019 12.55 42.7773 12.8622C42.5357 13.1743 42.2883 13.3846 41.9959 13.6963C41.8634 13.8374 41.7884 13.7682 41.605 13.9336C41.4217 14.0989 41.0962 14.2943 40.6826 14.4427C40.3742 14.5533 40.1281 14.5157 39.7772 14.577C39.4403 14.6359 39.2494 14.6072 38.9118 14.6141C38.6323 14.6198 38.7241 14.5596 38.4329 14.5851C38.0423 14.6193 38.4471 14.0614 38.7616 13.6963C39.0249 13.3905 39.1659 13.1036 39.46 12.8308C39.675 12.6314 39.7075 12.5135 39.941 12.2985C40.3752 11.8988 41.378 11.0592 40.8869 11.3456C40.6373 11.4911 40.5925 11.622 40.3247 11.7901C39.9974 11.9956 40.0107 12.0174 39.7173 12.2722C39.3572 12.585 38.7995 13.0875 38.7995 13.0875C38.4121 13.479 37.6995 14.7295 37.7169 14.1742C37.7217 14.0219 37.6193 13.3726 37.7169 13.0875C37.8227 12.7786 37.8022 12.7594 37.8968 12.4474C38.0078 12.0812 38.0322 11.8996 38.2227 11.566C38.385 11.2817 38.5999 11.0327 38.7995 10.7745C39.0402 10.4631 39.2111 10.2761 39.4886 10.1406C39.84 9.96892 39.9463 9.80931 40.2898 9.66423C40.6242 9.52303 40.7181 9.50257 41.0646 9.41325C41.4781 9.30669 42.0961 9.21383 42.0961 9.21383Z" fill="#6AAB29"/>
<path d="M5.45354 15.6671C5.45354 15.6671 4.29783 16.059 4.20141 16.0524C4.10499 16.0458 4.38783 16.514 4.4422 16.6785C4.53769 16.9673 4.66973 17.0795 4.79705 17.2716C4.93403 17.4783 5.06485 17.7479 5.20485 17.9697C5.34485 18.1915 5.5982 18.4776 5.73819 18.6994C5.87819 18.9212 6.21365 19.0567 6.52821 19.2475C6.67071 19.3339 6.73947 19.3352 6.93039 19.4296L6.93538 19.432C7.12718 19.5268 7.46386 19.6932 7.84397 19.7172C8.12991 19.7352 8.33157 19.6437 8.64323 19.61C8.94256 19.5775 9.09906 19.507 9.38802 19.4308C9.62723 19.3676 9.53635 19.3393 9.78969 19.29C10.1296 19.2238 9.66752 18.8534 9.32294 18.623C9.03443 18.4301 8.85399 18.2233 8.54625 18.0656C8.32118 17.9503 8.26876 17.8591 8.02473 17.7352C7.57087 17.5049 6.54039 17.0432 7.01886 17.1644C7.26194 17.226 7.32761 17.3251 7.59107 17.4013C7.91296 17.4944 7.89384 17.5434 8.20963 17.6587C8.52336 17.7734 9.25882 18.0882 9.25882 18.0882C9.69317 18.2993 10.4297 19.04 10.2981 18.5776C10.262 18.4507 10.2276 18.0734 10.0845 17.8575C9.92953 17.6237 9.94294 17.6026 9.79678 17.3634C9.62527 17.0827 9.56627 16.936 9.33395 16.702C9.13595 16.5026 8.90061 16.3456 8.67631 16.1771C8.40584 15.974 8.22098 15.8584 7.95623 15.812C7.62088 15.7531 7.49676 15.6449 7.17373 15.6065C6.85931 15.5691 6.77505 15.5747 6.46116 15.5839C6.08668 15.5949 5.45354 15.6671 5.45354 15.6671Z" fill="#6AAB29"/>
<path d="M45.8577 15.7628C45.8577 15.7628 47.3245 16.0646 47.0603 16.1847C46.8219 16.2932 46.8281 16.514 46.7738 16.6784C46.6783 16.9673 46.7084 17.049 46.5811 17.241C46.4442 17.4477 46.3839 17.7199 46.2177 17.9697C46.0514 18.2195 45.7988 18.5532 45.6843 18.6994C45.5698 18.8456 45.3772 19.0382 45.0401 19.2309C44.7029 19.4235 44.5806 19.3874 44.4921 19.4296C44.4036 19.4717 44.075 19.4957 43.6916 19.5198C43.4057 19.5378 43.2809 19.6017 42.9692 19.568C42.6699 19.5356 42.4527 19.5479 42.1637 19.4717C41.9245 19.4085 41.6655 19.3765 41.4122 19.3272C41.0723 19.261 41.3725 18.8834 41.7171 18.653C42.0056 18.46 42.3244 18.1846 42.6321 18.0269C42.8572 17.9116 43.1586 17.8136 43.4026 17.6898C43.8565 17.4594 44.8821 17.0431 44.4036 17.1644C44.1606 17.226 44.0949 17.325 43.8314 17.4013C43.5095 17.4944 43.5287 17.5433 43.2129 17.6587C42.8992 17.7733 42.1637 18.0881 42.1637 18.0881C41.7293 18.2993 40.7432 19.0399 40.8749 18.5775C40.911 18.4507 40.948 17.951 41.091 17.7352C41.246 17.5013 41.266 17.4803 41.4122 17.241C41.5837 16.9603 41.8672 16.7198 42.0996 16.4858C42.2976 16.2864 42.456 16.2208 42.6803 16.0524C42.9507 15.8493 43.1861 15.7617 43.4508 15.7153C43.7862 15.6565 43.9257 15.6448 44.2488 15.6064C44.5632 15.5691 44.6475 15.5747 44.9614 15.5839C45.3358 15.5948 45.8577 15.7628 45.8577 15.7628Z" fill="#6AAB29"/>
<path d="M25.5357 20.194C25.1504 21.4461 25.2949 23.9215 25.2949 23.9985C25.2949 24.0756 25.1005 23.8912 25.0541 23.8541C24.8133 23.6614 24.7607 23.6351 24.6207 23.4513C24.4678 23.2505 24.3948 23.2137 24.2836 22.9872C24.0907 22.5946 23.992 22.4032 23.8983 21.9759C23.8096 21.5717 23.7373 20.7628 23.8501 20.3866C23.963 20.0105 23.9299 20.1367 24.0428 19.7605C24.1556 19.3844 24.2836 19.4235 24.5244 19.0382C24.7651 18.6529 25.0059 18.3639 25.0541 18.3158C25.411 17.959 25.4394 17.6897 25.4394 17.6897C25.5838 17.6897 25.9316 18.1033 26.1136 18.2676C26.323 18.4566 26.7878 19.3122 27.1249 19.8087C27.462 20.3052 27.3657 21.9759 26.836 23.0353C26.547 23.6614 26.1514 23.9123 25.6802 24.0948C25.632 23.4206 25.4394 21.8314 25.632 20.4829C25.8246 19.1345 25.5357 20.194 25.5357 20.194Z" fill="#6AAB29"/>
<path fill-rule="evenodd" class="albero" clip-rule="evenodd" d="M21.8873 15.1745L25.5539 17L29.2206 15.1745L27.9804 14.5191L26.0392 15.5489V11.8043L29.7059 9.97872L29.8137 12.6L31 13.2553V8.85532L25.5 6L20 8.85532V13.1617L21.1324 12.6V10.166H21.4559L24.9069 11.8043V15.5489L22.9118 14.5191L21.8873 15.1745ZM25.5539 10.8681L21.9951 9.08936L23.7745 8.1766L25.5 7.28723L27.2794 8.2L28.1691 8.63298L29.0588 9.18298L25.5539 10.8681Z" fill="#1C3E59"/>
<path fill-rule="evenodd" class="stroke" clip-rule="evenodd" d="M21.8873 15.1745L25.5539 17L29.2206 15.1745L27.9804 14.5191L26.0392 15.5489V11.8043L29.7059 9.97872L29.8137 12.6L31 13.2553V8.85532L25.5 6L20 8.85532V13.1617L21.1324 12.6V10.166H21.4559L24.9069 11.8043V15.5489L22.9118 14.5191L21.8873 15.1745ZM25.5539 10.8681L21.9951 9.08936L23.7745 8.1766L25.5 7.28723L27.2794 8.2L28.1691 8.63298L29.0588 9.18298L25.5539 10.8681Z" stroke="#1C3E59"/>
<path fill-rule="evenodd" class="albero" clip-rule="evenodd" d="M25.6796 43.2124L30.6175 43.5139L35.8487 44.0667C35.8487 44.0667 40.8972 45.5843 39.711 44.6698C39.1244 44.2175 38.1465 43.8154 38.1465 43.8154L36.2398 43.0114L33.2576 42.2073C33.2576 42.2073 31.302 42.0566 30.2264 41.8053C29.407 41.6139 29.3048 40.6192 29.053 39.7952C28.8117 39.005 28.6186 38.4557 28.5153 37.6343C28.3953 36.6806 28.4664 35.2221 28.4664 35.2221C28.4664 35.2221 28.6547 34.5116 28.7597 34.0663C28.9979 33.0569 29.2975 32.609 29.7864 31.7044C30.3896 30.5884 30.9663 30.1712 31.9864 29.443C32.6949 28.9373 33.0623 28.6113 33.8442 28.2369C34.5192 27.9138 34.8918 27.7058 35.6042 27.4831C36.2204 27.2906 36.5809 27.2317 37.2175 27.1314C37.626 27.067 37.8582 27.0548 38.2687 27.0057C38.6792 26.9567 38.9467 26.9092 39.3572 26.8601L39.4059 28.9289L44.3738 31.8552L49 28.9405V23.0106L44.1599 20.1461L42.1821 21.6035L42.9866 22.2065L44.1599 21.3522L47.637 23.4795L44.3738 25.4473L41.3054 23.4795L42.3282 22.7227L37.1198 19.3923L36.6298 19.5933L36.4843 20.1461L40.2977 22.7593L39.5034 23.2777V25.5987L37.7987 25.6996L36.1914 25.9015L34.6329 26.1033C34.6329 26.1033 33.8484 26.3449 33.3553 26.5283C32.4147 26.8782 31.0086 27.5836 31.0086 27.5836C31.0086 27.5836 28.1241 29.9455 27.9286 30.247C27.733 30.5486 27.8308 30.0963 27.8797 29.644C27.9286 29.1917 27.9652 29.1604 28.0091 28.8279C28.0647 28.4066 28.2526 27.7684 28.2526 27.7684C28.2526 27.7684 28.4451 27.056 28.5935 26.6079C28.7792 26.0473 28.8939 25.7356 29.1293 25.1951C29.43 24.5043 29.6046 24.1139 30.006 23.4795C30.3242 22.9766 30.5299 22.7114 30.9109 22.2568C31.4236 21.6449 31.7539 21.3387 32.3438 20.8053C32.7308 20.4553 33.302 20.0183 33.302 20.0183L33.3553 19.7441L33.2576 19.2416L32.9153 19.0406L32.6709 18.94L31.1064 19.9451H31.0331V16.8797L34.2842 18.94L34.236 22.6085L32.6709 21.704L31.8398 22.508L34.7081 24.3877C34.8255 24.3475 37.0872 22.91 38.0976 22.307L37.2665 21.5532L35.3598 22.6085L35.3109 18.8395L38.6843 16.9837V19.4461L39.711 20.1461L39.7599 15.5731L34.7731 12.5579L32.5242 13.9147L27.9286 11L27.3908 11.3015L27.1952 11.8637L31.3509 14.6623L29.8842 15.5575C29.8842 15.5575 30.0308 20.4979 29.7375 21.0507C29.4442 21.6035 28.7597 22.307 28.7597 22.307C28.7597 22.307 27.6869 23.8398 27.1464 24.8699C26.8178 25.4961 26.7552 25.8247 26.5597 26.6079C26.3411 27.4831 26.2394 28.9729 25.5819 28.4882C25.2274 28.2268 25.2227 27.2834 24.9463 26.5283C24.7503 25.9928 24.6606 25.6816 24.4085 25.1715C24.1757 24.7003 23.7241 24.0156 23.7241 24.0156L22.8441 22.6588L21.4263 21.1512L21.4752 15.591L19.9596 14.666L24.0174 11.9847L23.8708 11.3015L23.2352 11.1193L18.884 14.0016L16.5912 12.5255L11.5995 15.5228L11.6922 19.9954L12.6261 19.3923V16.9299L16.0973 18.8395V22.7593L14.2395 21.6035L13.3595 22.307C14.3699 22.9101 16.5666 24.3775 16.684 24.4177L19.6174 22.4075L18.8351 21.704L17.124 22.7593V18.8395L20.4485 16.8796V19.9451L20.3018 19.9954L18.884 18.9903L18.6396 19.1411L18.3462 19.4426L18.1018 20.1461L18.8518 20.8556L20.5463 22.4075L21.4263 23.5131L22.3063 25.1715L22.8441 26.6079L23.1865 27.8851L23.4307 28.9405L23.6263 29.8953C23.6263 29.8953 23.6123 30.421 23.4307 30.247C21.4826 28.3801 20.0085 27.4831 20.0085 27.4831L18.3951 26.7293L16.5627 26.1535C16.5627 26.1535 15.9194 25.9993 15.1684 25.875C14.4174 25.7507 13.3969 25.7499 13.3969 25.7499L12.0395 25.6838V23.3219L11.1106 22.7593L14.8751 20.2466L14.8262 19.5933L14.1906 19.3923L8.86734 22.7729L9.89014 23.5298L7.10162 25.4227L3.28823 23.5298L7.1994 21.5029L8.37275 22.2568L9.5005 21.6035L7.1994 20.2466L2 23.1766V29.0296L7.10162 31.7546L12.0395 29.041V27.0109C13.3275 26.9848 13.9226 26.945 15.1684 27.2821C16.3033 27.5892 17.9551 28.438 17.9551 28.438L19.0307 29.1415L19.9107 29.7445L21.084 30.8501C21.084 30.8501 21.6964 31.6149 22.0129 32.1567C22.5241 33.0315 22.6267 33.6736 22.8441 34.6693C23.0741 35.7232 23.1865 36.579 23.0885 37.3327C22.9605 38.3177 22.871 38.9078 22.5507 39.8454C22.2075 40.8505 22.5507 40.348 21.6707 41.2023C20.7907 42.0566 20.3996 42.0063 19.1773 42.0566L16.1462 42.7601L13.555 43.7149C13.555 43.7149 12.2839 44.3682 11.7461 44.72C10.52 45.522 14.1551 44.3664 15.6084 44.1672C17.3619 43.9269 20.1063 43.6144 20.1063 43.6144L25.6796 43.2124ZM3.28823 28.3374V24.8197L6.61273 26.3775L6.66162 30.1968L3.28823 28.3374ZM7.59052 30.1968V26.478L10.6207 24.5385V25.9517H9.5005L9.01346 26.3554L8.86734 26.8095V27.415L10.6207 27.0618V28.4745L7.59052 30.1968ZM48.1728 28.3234V24.3877L44.9096 26.3556V30.2973L48.1728 28.3234ZM43.8177 30.2973L43.8868 26.3556L40.5749 24.3877V25.8248L41.6951 25.9015L42.1821 26.3051L42.3282 26.7592V27.3647L40.5749 27.0115V28.4243L43.8177 30.2973ZM16.5729 17.8847L13.2617 15.9324L16.5729 14.0016L19.7508 15.9324L16.5729 17.8847ZM34.7081 17.7339L37.9834 15.9557L34.7731 13.965L31.6934 15.894L34.7081 17.7339Z" fill="#1C3E59"/>
</svg>
